PathFileType	4	(X/Y/Z)	Kaydara	
DataRate	CameraRate	NumFrames	NumMarkers	Units	OrigDataRate	OrigDataStartFrame	OrigNumFrames	
240.00	240.00	4	72	mm	240.00	180	359	
Frame#	Time	Hips			RightUpLeg			RightLeg			RightFoot			RightFoot_End			LeftUpLeg			LeftLeg			LeftFoot			LeftFoot_End			Spine			Spine1			Spine2			Spine3			Neck			Head			Head_End			RightShoulder			RightArm			RightForeArm			RightHand			RightHandThumb1			RightHandThumb2			RightHandThumb3			RightHandThumb3_End			RightInHandIndex			RightHandIndex1			RightHandIndex2			RightHandIndex3			RightHandIndex3_End			RightInHandMiddle			RightHandMiddle1			RightHandMiddle2			RightHandMiddle3			RightHandMiddle3_End			RightInHandRing			RightHandRing1			RightHandRing2			RightHandRing3			RightHandRing3_End			RightInHandPinky			RightHandPinky1			RightHandPinky2			RightHandPinky3			RightHandPinky3_End			LeftShoulder			LeftArm			LeftForeArm			LeftHand			LeftHandThumb1			LeftHandThumb2			LeftHandThumb3			LeftHandThumb3_End			LeftInHandIndex			LeftHandIndex1			LeftHandIndex2			LeftHandIndex3			LeftHandIndex3_End			LeftInHandMiddle			LeftHandMiddle1			LeftHandMiddle2			LeftHandMiddle3			LeftHandMiddle3_End			LeftInHandRing			LeftHandRing1			LeftHandRing2			LeftHandRing3			LeftHandRing3_End			LeftInHandPinky			LeftHandPinky1			LeftHandPinky2			LeftHandPinky3			LeftHandPinky3_End			
		X1	Y1	Z1	X2	Y2	Z2	X3	Y3	Z3	X4	Y4	Z4	X5	Y5	Z5	X6	Y6	Z6	X7	Y7	Z7	X8	Y8	Z8	X9	Y9	Z9	X10	Y10	Z10	X11	Y11	Z11	X12	Y12	Z12	X13	Y13	Z13	X14	Y14	Z14	X15	Y15	Z15	X16	Y16	Z16	X17	Y17	Z17	X18	Y18	Z18	X19	Y19	Z19	X20	Y20	Z20	X21	Y21	Z21	X22	Y22	Z22	X23	Y23	Z23	X24	Y24	Z24	X25	Y25	Z25	X26	Y26	Z26	X27	Y27	Z27	X28	Y28	Z28	X29	Y29	Z29	X30	Y30	Z30	X31	Y31	Z31	X32	Y32	Z32	X33	Y33	Z33	X34	Y34	Z34	X35	Y35	Z35	X36	Y36	Z36	X37	Y37	Z37	X38	Y38	Z38	X39	Y39	Z39	X40	Y40	Z40	X41	Y41	Z41	X42	Y42	Z42	X43	Y43	Z43	X44	Y44	Z44	X45	Y45	Z45	X46	Y46	Z46	X47	Y47	Z47	X48	Y48	Z48	X49	Y49	Z49	X50	Y50	Z50	X51	Y51	Z51	X52	Y52	Z52	X53	Y53	Z53	X54	Y54	Z54	X55	Y55	Z55	X56	Y56	Z56	X57	Y57	Z57	X58	Y58	Z58	X59	Y59	Z59	X60	Y60	Z60	X61	Y61	Z61	X62	Y62	Z62	X63	Y63	Z63	X64	Y64	Z64	X65	Y65	Z65	X66	Y66	Z66	X67	Y67	Z67	X68	Y68	Z68	X69	Y69	Z69	X70	Y70	Z70	X71	Y71	Z71	X72	Y72	Z72	

180	0.746	4198.941	914.58397	126.699	4251.141729681059	894.29262298483	52.27485726056821	4155.297697698294	498.4610928415403	-45.729365056949405	4140.961679327193	107.04006111715753	-121.78015247135725	3989.568215261205	30.333429225702254	-33.83590083850327	4160.747053611451	908.5661182457403	212.5107366105577	4069.4482144828025	506.4828823891612	285.97697794564664	3993.330476771453	81.93618355371255	372.1706525829516	3871.964733903366	-0.4388730444724062	249.60446325879965	4133.774130444563	1032.8184711730426	79.23444456908565	4072.8077060573273	1089.4708650256016	29.10745034479759	4006.447081654852	1141.4722037395925	-26.837511481603098	3939.2008830547347	1179.825402070574	-85.53197664902567	3866.156756432956	1221.2256036970134	-146.55979905442163	3798.0011109050915	1259.3838423812888	-199.53951222688147	3659.787828436108	1337.9875288164296	-210.28336801248213	3908.845060392262	1204.5953889270372	-150.16412719395433	3956.852354206882	1171.5287540145894	-254.88309580315416	4005.1660789161924	941.3487995071654	-233.83363470181428	3976.0964308974108	815.3723227914406	-377.95964221024957	3982.072601417099	826.5025459690474	-401.68206341684663	3966.5601045395947	828.3961856061101	-424.30556218109854	3955.1388827744354	826.5039426192877	-439.404569577262	3945.088555196986	822.1795535192327	-451.4307679438098	3982.494385190761	816.010112067722	-401.8174462700925	3980.926587990343	805.0884997471824	-434.5014930703882	3968.6718632787533	797.5048104521943	-455.5880102481489	3955.550658568425	796.2622927842584	-465.78541433875836	3940.9786712525683	797.576012392764	-472.2615229850191	3980.336610479009	807.6576954353297	-398.81681611139663	3977.6434746110363	792.4872603572044	-429.07328403669334	3963.9775599912728	783.1453093853582	-451.5788561291749	3948.0064168489744	781.1344250023125	-463.6397793595407	3931.9935257087154	782.323042328709	-470.60822749331305	3978.9611535718773	802.0120831801032	-395.8818815937764	3975.67248284155	783.4472763593665	-420.50572823984294	3963.464197083142	774.2387555569849	-439.55862099940964	3947.9010128484797	771.7329713463474	-450.8933205904655	3932.7701029830555	772.5823100064863	-457.30371594911276	3976.5626092085336	796.0054293512009	-391.40221183365696	3972.4328105898535	775.1929922629446	-411.29985038249276	3962.207018510066	766.2371340776128	-425.5707615920609	3950.637557775343	763.6441309532472	-433.36140751665147	3937.108795434094	763.9560792956846	-438.7654929945882	3871.9881074415803	1210.615793782502	-101.27647585352383	3827.401783722999	1172.384853753688	3.3642984970150542	3929.908693281078	999.2846864276212	-127.4661582842344	3975.7252394243574	865.3905576481875	-283.33759528261425	3997.162845832545	873.9319003093647	-299.55518681919733	4026.422222423982	864.2560611766252	-305.87042779572005	4045.579635978143	854.4782135838689	-310.26100040277765	4060.507670468067	843.7265469331707	-313.9149308734805	3993.912632339513	864.751195570284	-302.32553160235784	4020.860435805996	848.4640614384018	-325.6486927455866	4044.142734536807	832.1527389444783	-334.8883162926772	4060.0052456969624	823.0199097991477	-334.99142104170136	4074.070835510267	816.1405436694407	-331.27161830224065	3989.8749782482437	856.8143098725465	-301.16143648495733	4013.9737948745124	836.6366853690481	-323.28247674148855	4038.764899207442	817.8371455709996	-333.12676365222353	4057.6075549767743	806.3385528702264	-333.1369347074416	4072.85450446589	798.577847235869	-329.0112673843653	3986.286115705354	851.649947882023	-299.81941362013237	4004.6258940270736	829.1639678945992	-318.7004333118925	4025.5683812281104	811.7869607941818	-327.0018069970236	4043.3901820297683	800.1692396506886	-326.8634710623728	4057.5586718068976	792.6227634899828	-322.91409043813303	3981.75186701639	845.9535401765357	-297.0015728271287	3995.623293289359	821.9044906160635	-312.84308375466463	4011.275333652122	806.5410028940423	-318.9724348836388	4023.73385119457	797.366239721679	-318.6209248507628	4035.9736027355275	790.2780037660531	-314.97818250879607
181	0.75	4198.941	914.58397	126.699	4251.080156320322	894.2287455836429	52.260845463341894	4155.244324985331	498.40387073174577	-45.7774763522874	4140.973647876644	106.98393906634702	-121.8352652561076	3989.5818133399357	30.27745470779191	-33.888048488624435	4160.7997738088125	908.6275452165517	212.52942585823058	4069.5043550370224	506.54653931713375	286.01279398354075	3993.3155537807174	81.99770696699562	372.1169759263553	3871.959952770189	-0.387383897984042	249.54748525554234	4133.816387681	1032.8324858539252	79.21442008671238	4072.856268304285	1089.464898094864	29.05749614651312	4006.506104970808	1141.4489196822	-26.915781376914488	3939.280576554465	1179.805003809418	-85.63223653194258	3866.2564671772925	1221.208816795033	-146.68169176857978	3798.118847765844	1259.373233339889	-199.68018512454174	3659.9195392560487	1337.9977338736833	-210.44055240814907	3908.899404360367	1204.5118706763942	-150.26207328997876	3956.696812062344	1171.0987924289207	-254.72452215198552	4004.3736367110514	941.4181835457645	-232.90311642586326	3974.766707855498	815.7884640102047	-375.1859155629829	3980.478257533636	826.7594946131952	-398.69260979943226	3964.8382962196415	828.6118217537573	-420.9458843269344	3953.351774538129	826.7184821484504	-435.7702567746332	3943.2670839376856	822.4168531153872	-447.5531224764396	3980.949416789971	816.346604483479	-398.7537960999624	3979.185032396422	805.4277940719243	-430.90702509771086	3966.849409006032	797.8730447360349	-451.5928540701755	3953.704736090885	796.640573729405	-461.57885824104176	3939.1314193046705	797.9572494517558	-467.90542579454336	3978.8649662843427	808.0706406362286	-395.72443144499266	3976.0197303304294	792.9442841910936	-425.44762226123817	3962.2759217731123	783.6440246537837	-447.513855044324	3946.2814472904442	781.6501138552712	-459.3187201027169	3930.2695237133803	782.844325049675	-466.12305152898364	3977.545876187807	802.4788780508784	-392.78284388519336	3974.1684972263674	784.0000492121933	-416.9232916874751	3961.903175441352	774.8381343355655	-435.59193864260214	3946.3232520142747	772.3541750674906	-446.678950706635	3931.1959841741464	773.2113570335483	-452.9347039583633	3975.2215645740444	796.5349372723272	-388.3100794056948	3971.0545828388645	775.8397114030302	-407.7687757944078	3960.800446061892	766.9368175786568	-421.7320514960117	3949.2271578752625	764.3673012594129	-429.3420591725545	3935.706445694802	764.690552809019	-434.60917200600846	3872.12146561414	1210.6647987697143	-101.40919325699149	3827.6594285948777	1172.9148564833893	3.2000313601714363	3929.5538945494354	999.6026364109335	-126.51204224966303	3975.1788032782024	865.5564578117769	-280.808523342103	3996.362480816829	874.0090225816065	-296.98965316854304	4025.539905238086	864.378491214136	-303.36580729990783	4044.670304799056	854.6492316689496	-307.7762288495793	4059.601532693547	843.9526446019336	-311.427397679461	3993.185245926508	864.8719920900877	-299.6569857838669	4020.017683626696	848.6191720173274	-322.76450820317626	4043.2809821237825	832.3811307010526	-331.9542534455195	4059.14978705259	823.3044374740197	-332.11645937150956	4073.2327990462077	816.4786698199858	-328.50635698502606	3989.2362722842518	856.98259479386	-298.4437685833586	4013.270514455401	836.8641110789627	-320.3278826651224	4038.053037892129	818.1507518838961	-330.1120853035025	4056.9091181138538	806.7228681595963	-330.19084546232546	4072.1779654047064	799.0222591240818	-326.18389079109585	3985.7125579352983	851.8505236930035	-297.071336000814	4004.0497047989743	829.4444554872767	-315.7100911555162	4024.99724031369	812.148828398564	-323.9536999285528	4042.8386424393416	800.6026388327904	-323.87865882103114	4057.030874295317	793.114245069227	-320.0395404104734	3981.2602729151004	846.193359924991	-294.2342078068749	3995.1782732364404	822.2405231718858	-309.837502195264	4010.8539145830564	806.9516297019845	-315.9132457328571	4023.3361909553078	797.8336026721894	-315.6043466671431	4035.602419173851	790.7994427235475	-312.0572322464067
182	0.754	4198.941	914.58397	126.699	4251.0191378345235	894.1646662278785	52.24734927847622	4155.190925216949	498.3472497425765	-45.82793560622995	4140.986471763966	106.92838264681728	-121.89273341396567	3989.596282580028	30.221778429921322	-33.94275520149736	4160.851967759204	908.6892967561795	212.54783516468734	4069.5608861175315	506.61075063535304	286.05068892378296	3993.3009796599163	82.05956490749628	372.06460168269535	3871.955794121235	-0.33621323872072	249.49197423271804	4133.858492568781	1032.8459612510405	79.19331888011695	4072.903784387141	1089.4566220841302	29.005607395161782	4006.563326854517	1141.421512030832	-26.996742347698962	3939.3587421981515	1179.7798790869588	-85.73587685484362	3866.3549317886514	1221.186686593368	-146.80770507013457	3798.2355556503758	1259.3567257754075	-199.82565532123775	3660.0493087790146	1338.0001332071308	-210.60030308003385	3908.9519648736728	1204.4233101527286	-150.36264386419006	3956.5396542606873	1170.6748400332617	-254.56350061993203	4003.592733763693	941.4905508445104	-231.9935259129418	3973.4820100382944	816.2278422495644	-372.44337349275844	3978.9220440397607	827.037350643276	-395.7236806897821	3963.160044655467	828.8498685387915	-417.59517866220796	3951.613677914936	826.9565058724482	-432.13775567411506	3941.5006054883215	822.678554687547	-443.672076023699	3979.447166844535	816.7034604385022	-395.71307762890376	3977.492295182361	805.7850042270369	-427.32522808065346	3965.084222297405	798.2597663233744	-447.6020830958346	3951.9218032347617	797.0391141116484	-457.37098312940714	3937.3522096114557	798.3611684252998	-463.542915163599	3977.4405863273455	808.5042154049452	-392.65768699591126	3974.451657549741	793.4196933386038	-421.83905802262586	3960.6397600625414	784.1617947022764	-443.4572993232537	3944.6291385651243	782.1870174990765	-454.9994110495014	3928.6238476016474	783.3894839820517	-461.6341423631632	3976.1808884687853	802.9665294767631	-389.7116371410825	3972.7248728156123	784.5717958286829	-413.3629768702167	3960.411646406509	775.457121073799	-431.64024790470404	3944.822224461551	772.9970972223908	-442.4733327887007	3929.7040724516696	773.8646376103982	-448.569391584678	3973.934360220977	797.0858186599586	-385.24847912288953	3969.7415214942725	776.5063165571783	-404.2647104089519	3959.4672215156993	767.6569823721165	-417.9153072412489	3947.895807823596	765.1125345186505	-425.34044767385745	3934.3882367763267	765.4493416590267	-430.46629778893924	3872.253931306534	1210.7085535624515	-101.54707196957125	3827.913909915906	1173.4356407317953	3.0183468053948186	3929.1993358488835	999.920371464468	-125.55880389530917	3974.686602601838	865.7487252733343	-278.2948266562921	3995.607614868339	874.1160689283224	-294.43294544749665	4024.7024818743907	864.5343585112367	-300.87703198779764	4043.8078757184444	854.8563052295565	-305.3136904516757	4058.7460498605396	844.2171273676253	-308.96870604986896	3992.511146742885	865.0237856486975	-297.0010693943036	4019.236303329444	848.8124241497301	-319.8985290707113	4042.4868709772413	832.6519354321599	-329.04746794607155	4058.363613768367	823.6329549670252	-329.2756103322623	4072.463888669041	816.8613632262212	-325.7816721036291	3988.6572113371685	857.1820617455369	-295.7428619221603	4012.6382033053205	837.1297876608336	-317.39772192090345	4037.419800491582	818.5072704158351	-327.132273142595	4056.291679055489	807.1519981786814	-327.2881249893403	4071.5824396374246	799.5121176610685	-323.4070800204462	3985.2029415764814	852.0822396134472	-294.34275463420306	4003.5513675126394	829.7624100986302	-312.7483729175676	4024.511436574805	812.552214976424	-320.943843835245	4042.3751618602496	801.0793863280712	-320.9405824239012	4056.591355106828	793.6496664732733	-317.21862760331703	3980.8372515461733	846.4639883969871	-291.4896590893345	3994.8174791276524	822.6129978263137	-306.8650170809325	4010.5239237501623	807.4018986560017	-312.8956552684227	4023.0325287920246	798.3419205278976	-312.6359396989795	4035.3257643676657	791.3623481147454	-309.19078755934856
183	0.758	4198.941	914.58397	126.699	4250.958615576912	894.1003727013876	52.23431576691743	4155.137336583911	498.29125104027725	-45.88082237992932	4141.000247430159	106.87345339681698	-121.95290779922837	3989.6117275397332	30.16642879055431	-34.000386742949935	4160.903732330199	908.7514084370952	212.56602208974672	4069.6177198294245	506.6754277109432	286.0898214732648	3993.2870766892192	82.12159172835214	372.0127031898592	3871.952542519591	-0.2854622734077208	249.43709848376673	4133.900277216308	1032.858793361775	79.1711231327402	4072.950066364977	1089.4459256079206	28.95178856932003	4006.618514810521	1141.3898314491041	-27.080369684949083	3939.4350812483367	1179.749796737828	-85.84285243696803	3866.451786091884	1221.1588830804994	-146.9377849334557	3798.3508179533846	1259.3338935181632	-199.9758725185327	3660.1768225983274	1337.9944028562138	-210.7629541122449	3909.002361290004	1204.3292996663315	-150.4658488418679	3956.3804132965574	1170.256969933874	-254.40049021792456	4002.8246402727364	941.5655489652013	-231.1053963317876	3972.245330775489	816.6908110122927	-369.7342222969047	3977.407022683858	827.3376630524092	-392.77611019154523	3961.529179677905	829.112871752865	-414.2538221914526	3949.928999390579	827.2212026297599	-428.5073287522392	3939.7940427863487	822.9683394149511	-439.7879699250453	3977.9907975915125	817.082179174264	-392.6966839255169	3975.852191897407	806.1630875671281	-423.75720598464306	3963.3808696736805	798.6688198920805	-443.61684410221596	3950.2069713482647	797.4621688437912	-453.1629527511188	3935.64665705184	798.7922684004031	-459.17516239116185	3976.0667377696527	808.9597231207784	-389.61855177605463	3972.943217316342	793.9161074725611	-418.24958980920115	3959.0738674671293	784.702176719991	-439.41131140906714	3943.0549463973753	782.7491733141748	-450.6840321832813	3927.0625068704326	783.9628164970061	-457.14370625397163	3974.8695124247797	803.4761665006997	-386.67064345466775	3971.345593476556	785.1646772353847	-409.8275473533603	3958.9943299275737	776.0986604421449	-427.7064993001161	3943.4032957654917	773.6651278687816	-438.27951476239633	3928.300256925681	774.5457778245736	-444.2108713240531	3972.704382982832	797.6589495463168	-382.22028702720945	3968.497651860396	777.1944789556991	-400.7911805410691	3958.211974364069	768.399870430162	-414.12432629704824	3946.6486151751096	765.8823701137737	-421.3605002991994	3933.1597441056333	766.2351784990602	-426.3408709153589	3872.3852027771245	1210.7468758806724	-101.6899996920837	3828.1648536042735	1173.9465007949464	2.819315733923414	3928.8452366617626	1000.2371369220594	-124.60698181675748	3974.247869447416	865.9662273284385	-275.8015459296928	3994.8974930526324	874.2521114589364	-291.8898037679622	4023.9087695923204	864.7223764039155	-298.40909873490034	4042.9908809526296	855.0978418628296	-302.87868657758236	4057.939527566877	844.5181001213255	-306.54451872030893	3991.889677252666	865.2055082108494	-294.3629280357101	4018.5156370860423	849.0424618263463	-317.0566031814736	4041.7594757173597	832.9633753714671	-326.1743896928892	4057.6454769056168	824.0033686811125	-326.4755600736059	4071.7624815865897	817.2862327128312	-323.10439067186945	3988.1371601954975	857.4114901623249	-293.0641839499759	4012.076238083657	837.4321312303792	-314.4983209506121	4036.864274319084	818.9046375956746	-324.1943290646688	4055.75393601154	807.6234889857357	-324.4361036817539	4071.06621691807	800.0446387573812	-320.6883289993629	3984.7566499969657	852.3437764970694	-291.6393464468807	4003.1303004834563	830.1161067271424	-309.8219072289565	4024.11013875636	812.9949580865867	-317.9794959203262	4041.9985351115615	801.5969328733329	-318.05683709547486	4056.238525669079	794.2261631418327	-314.4591110252458	3980.4821856523413	846.7639867848656	-288.77382458253373	3994.5403347640663	823.0200357843258	-303.9325357313314	4010.284589026001	807.8895522498842	-309.9271321470567	4022.8218217232943	798.888639878508	-309.72344722835174	4035.1422567990658	791.9638793273447	-306.38675295912003
